<svg id="Capa_1" enable-background="new 0 0 512 512" height="512" viewBox="0 0 512 512" width="512" xmlns="http://www.w3.org/2000/svg"><g><path d="m319.724 90.178h-127.448v-56.383c0-6.679 5.415-12.094 12.094-12.094h103.26c6.679 0 12.094 5.415 12.094 12.094z" fill="#dd636e"/><path d="m307.63 21.701h-20.966c6.679 0 12.094 5.415 12.094 12.094v56.383h20.966v-56.383c0-6.68-5.414-12.094-12.094-12.094z" fill="#da4a54"/><path d="m84.735 54.042-60.103 60.103-21.062-21.061c-4.76-4.76-4.76-12.478 0-17.238l42.866-42.866c4.76-4.76 12.478-4.76 17.238 0z" fill="#365e7d"/><path d="m427.265 54.042 60.103 60.103 21.062-21.062c4.76-4.76 4.76-12.478 0-17.238l-42.866-42.865c-4.76-4.76-12.478-4.76-17.238 0z" fill="#365e7d"/><path d="m494.511 130.146-79.323-70.266s-7.255-13.925-9.58-11.967c-2.487 2.094-6.821 1.054-9.463 2.896-25.532 17.81-57.85 23.771-88.728 16.177-16.473-4.051-33.693-6.201-51.417-6.201s-34.944 2.15-51.417 6.201c-53.19 13.08-89.496-15.43-100.408-25.556-1.977-1.834-5.042-1.786-6.949.12l-85.07 85.07c-1.928 1.928-1.964 5.042-.069 7.002 10.696 11.064 41.884 48.038 32.129 106.124-2.076 12.363-3.096 25.085-2.961 38.069 1.223 118.066 96.549 212.416 214.622 212.483 118.664.067 214.88-96.109 214.88-214.757 0-12.358-1.045-24.472-3.051-36.258-6.65-39.074 5.516-78.983 33.543-107.01 1.173-1.172-5.565-.954-6.738-2.127z" fill="#5766cb"/><g><path d="m501.249 128.026-87.857-87.857c-1.159-1.159-3.027-1.181-4.205-.041-2.427 2.347-6.909 6.407-13.081 10.708l67.579 67.568c6.487 6.487 6.487 17.004 0 23.49-22.998 22.998-32.663 56.109-25.76 87.892 3.202 14.744 4.89 30.052 4.89 45.755 0 113.924-88.711 207.112-200.821 214.294 4.632.296 9.3.462 14.008.462 118.606-.001 214.756-96.15 214.756-214.757 0-12.361-1.046-24.477-3.052-36.266-6.651-39.072 5.517-78.979 33.544-107.003 1.172-1.17 1.172-3.072-.001-4.245z" fill="#3d4fc3"/></g><path d="m396.28 265.48c0 19.244-3.884 37.591-10.899 54.291-8.736 20.799-22.345 39.044-39.384 53.312-7.551 6.325-18.688 5.584-25.476-1.566-16.215-17.06-39.116-27.712-64.52-27.712s-48.316 10.652-64.531 27.722c-6.737 7.098-17.822 7.932-25.343 1.659-17.101-14.289-30.751-32.574-39.518-53.415-7.273-17.328-11.178-36.438-10.868-56.485.453-30.009 10.446-57.783 27.063-80.447 25.404-34.645 66.282-57.319 112.187-57.639 46.987-.33 88.678 22.448 114.381 57.639 16.925 23.179 26.908 51.736 26.908 82.641z" fill="#b1e4f9" stroke="#b1e4f9" stroke-miterlimit="10"/><g><path d="m369.371 182.839c-25.703-35.191-67.394-57.968-114.381-57.639-3.028.021-6.032.146-9.014.358 42.486 2.969 79.766 24.843 103.457 57.28 16.926 23.179 26.908 51.736 26.908 82.641 0 19.244-3.884 37.591-10.899 54.291-8.736 20.799-22.345 39.044-39.384 53.312-.614.515-1.259.965-1.917 1.386 6.694 4.234 15.528 3.913 21.854-1.386 17.039-14.268 30.648-32.512 39.384-53.312 7.016-16.699 10.899-35.047 10.899-54.291.002-30.904-9.981-59.461-26.907-82.64z" fill="#90d8f9"/></g><g><path d="m278.322 398.925h-44.643c-4.268 0-7.726-3.459-7.726-7.726s3.459-7.726 7.726-7.726h44.643c4.268 0 7.726 3.459 7.726 7.726s-3.459 7.726-7.726 7.726z" fill="#f4fbff"/></g><g><path d="m309.227 436.701h-106.454c-4.268 0-7.726-3.459-7.726-7.726s3.459-7.726 7.726-7.726h106.454c4.268 0 7.726 3.459 7.726 7.726s-3.458 7.726-7.726 7.726z" fill="#f4fbff"/></g><path d="m396.28 265.48c0 19.244-3.884 37.591-10.899 54.291h-258.772c-7.273-17.328-11.178-36.438-10.868-56.485.453-30.009 10.446-57.783 27.063-80.447h226.568c16.925 23.179 26.908 51.736 26.908 82.641z" fill="#f4fbff"/><path d="m369.371 182.839h-19.937c16.926 23.179 26.908 51.736 26.908 82.641 0 19.244-3.884 37.591-10.899 54.291h19.937c7.016-16.699 10.899-35.047 10.899-54.291.001-30.905-9.982-59.462-26.908-82.641z" fill="#daf1f4"/><g><g><g><path d="m305.542 301.187c-4.268 0-7.726-3.459-7.726-7.726v-67.196h-8.288c-4.268 0-7.726-3.459-7.726-7.726s3.459-7.726 7.726-7.726h16.014c4.268 0 7.726 3.459 7.726 7.726v74.923c0 4.267-3.458 7.725-7.726 7.725z" fill="#2b4d66"/></g></g><g><g><path d="m342.607 301.187c-4.268 0-7.726-3.459-7.726-7.726v-67.196h-8.288c-4.268 0-7.726-3.459-7.726-7.726s3.459-7.726 7.726-7.726h16.014c4.268 0 7.726 3.459 7.726 7.726v74.923c.001 4.267-3.458 7.725-7.726 7.725z" fill="#2b4d66"/></g></g><g><g><path d="m244.071 301.187c-4.268 0-7.726-3.459-7.726-7.726v-67.196h-8.288c-4.268 0-7.726-3.459-7.726-7.726s3.459-7.726 7.726-7.726h16.014c4.268 0 7.726 3.459 7.726 7.726v74.923c0 4.267-3.458 7.725-7.726 7.725z" fill="#2b4d66"/></g></g><g><g><path d="m191.058 302.717c-16.206 0-29.391-13.185-29.391-29.392v-34.649c0-16.207 13.185-29.392 29.391-29.392 16.207 0 29.392 13.185 29.392 29.392v34.649c0 16.206-13.185 29.392-29.392 29.392zm0-77.981c-7.686 0-13.939 6.254-13.939 13.94v34.649c0 7.686 6.253 13.94 13.939 13.94s13.94-6.254 13.94-13.94v-34.649c0-7.687-6.254-13.94-13.94-13.94z" fill="#2b4d66"/></g></g><g><g><path d="m271.2 246.566c-4.268 0-7.726-3.459-7.726-7.726v-4.581c0-4.268 3.459-7.726 7.726-7.726s7.726 3.459 7.726 7.726v4.581c0 4.267-3.459 7.726-7.726 7.726z" fill="#2b4d66"/></g><g><path d="m271.2 285.469c-4.268 0-7.726-3.459-7.726-7.726v-4.583c0-4.268 3.459-7.726 7.726-7.726s7.726 3.459 7.726 7.726v4.583c0 4.267-3.459 7.726-7.726 7.726z" fill="#2b4d66"/></g></g></g><g><path d="m260.472 161.691h-8.946c-4.268 0-7.726-3.459-7.726-7.726s3.459-7.726 7.726-7.726h8.946c4.268 0 7.726 3.459 7.726 7.726s-3.458 7.726-7.726 7.726z" fill="#dd636e"/></g><g><g><path d="m117.217 129.332c-1.977 0-3.955-.755-5.464-2.263l-17.84-17.84c-3.017-3.018-3.017-7.909 0-10.928 3.018-3.016 7.909-3.016 10.928 0l17.84 17.84c3.017 3.018 3.017 7.909 0 10.928-1.509 1.509-3.487 2.263-5.464 2.263z" fill="#f4fbff"/></g><g><path d="m92.196 154.354c-1.977 0-3.955-.755-5.464-2.263l-17.84-17.84c-3.017-3.018-3.017-7.909 0-10.928 3.018-3.016 7.909-3.016 10.928 0l17.84 17.84c3.017 3.018 3.017 7.909 0 10.928-1.509 1.509-3.487 2.263-5.464 2.263z" fill="#f4fbff"/></g></g><g><g><path d="m394.782 129.332c-1.977 0-3.955-.755-5.464-2.263-3.017-3.018-3.017-7.909 0-10.928l17.84-17.84c3.018-3.016 7.909-3.016 10.928 0 3.017 3.018 3.017 7.909 0 10.928l-17.84 17.84c-1.509 1.509-3.487 2.263-5.464 2.263z" fill="#f4fbff"/></g><g><path d="m419.804 154.354c-1.977 0-3.955-.755-5.464-2.263-3.017-3.018-3.017-7.909 0-10.928l17.84-17.84c3.018-3.016 7.909-3.016 10.928 0 3.017 3.018 3.017 7.909 0 10.928l-17.84 17.84c-1.509 1.509-3.487 2.263-5.464 2.263z" fill="#f4fbff"/></g></g></g></svg>